<svg xmlns="http://www.w3.org/2000/svg" width="119.302" height="119.302" viewBox="0 0 119.302 119.302">
  <path id="download-solid" d="M111.845,82.02H80.738L70.195,92.564a14.907,14.907,0,0,1-21.088,0L38.563,82.02H7.456A7.457,7.457,0,0,0,0,89.476v22.369A7.457,7.457,0,0,0,7.456,119.3H111.845a7.457,7.457,0,0,0,7.456-7.456V89.476A7.448,7.448,0,0,0,111.845,82.02Zm-11.185,24.233a5.592,5.592,0,1,1,5.592-5.592A5.609,5.609,0,0,1,100.661,106.253ZM54.385,87.286a7.438,7.438,0,0,0,10.537.006L94.747,57.466A7.456,7.456,0,0,0,84.2,46.923l-17.1,17.109V7.456a7.456,7.456,0,0,0-14.913,0V64.031l-17.1-17.1A7.456,7.456,0,0,0,24.548,57.472Z" fill="#cead63"/>
</svg>
