<svg xmlns="http://www.w3.org/2000/svg" width="109.724" height="109.724" viewBox="0 0 109.724 109.724">
  <path id="linkedin-brands" d="M101.886,32H7.813A7.871,7.871,0,0,0,0,39.911v93.9a7.871,7.871,0,0,0,7.813,7.911h94.073a7.892,7.892,0,0,0,7.837-7.911v-93.9A7.892,7.892,0,0,0,101.886,32ZM33.162,126.049H16.9V73.685H33.187v52.364ZM25.031,66.534A9.429,9.429,0,1,1,34.46,57.1,9.433,9.433,0,0,1,25.031,66.534Zm69.092,59.515H77.86V100.577c0-6.074-.122-13.887-8.45-13.887-8.474,0-9.772,6.613-9.772,13.446v25.912H43.375V73.685h15.6v7.152h.22c2.18-4.115,7.495-8.45,15.405-8.45,16.459,0,19.52,10.85,19.52,24.957Z" transform="translate(0 -32)" fill="#cead63"/>
</svg>
