<svg xmlns="http://www.w3.org/2000/svg" xmlns:xlink="http://www.w3.org/1999/xlink" width="538.426" height="470.519" viewBox="0 0 538.426 470.519">
  <defs>
    <linearGradient id="linear-gradient" x1="0.076" y1="-0.03" x2="0.987" y2="0.896" gradientUnits="objectBoundingBox">
      <stop offset="0" stop-color="#373995"/>
      <stop offset="1" stop-color="#d9dafa"/>
    </linearGradient>
  </defs>
  <path id="Our_Twitter_Feed_Left" data-name="Our Twitter Feed Left" d="M48.251,143.1c-.3,4.17-.3,8.34-.3,12.51,0,127.183,96.8,273.728,273.728,273.728a271.872,271.872,0,0,0,147.736-43.188,199.023,199.023,0,0,1-23.233,1.191,192.674,192.674,0,0,1-119.44-41.1,96.377,96.377,0,0,0,89.952-66.72A121.324,121.324,0,0,1,398.527,281a101.753,101.753,0,0,1-25.317-3.276,96.22,96.22,0,0,0,77.145-94.42v-1.191a96.89,96.89,0,0,1-43.486,12.211A96.35,96.35,0,0,0,436.654,65.655,273.464,273.464,0,0,1,238.283,166.33a108.606,108.606,0,0,0,2.383-22.041,96.3,96.3,0,0,0-166.5-65.826,189.413,189.413,0,0,1-61.06-23.233,95.947,95.947,0,0,0,42.3,53.018A192.867,192.867,0,0,1,0,93.356,206.807,206.807,0,0,0,48.251,143.1Z" transform="matrix(0.978, -0.208, 0.208, 0.978, -9.997, 50.565)" opacity="0.1" fill="url(#linear-gradient)"/>
</svg>
