<svg xmlns="http://www.w3.org/2000/svg" width="162.614" height="105.707" viewBox="0 0 162.614 105.707">
  <path id="retweet-solid" d="M184.931,137.84a6.767,6.767,0,0,0-6.053-4.281H165.79V94.539a21.843,21.843,0,0,0-21.814-21.814h-34.9a8.726,8.726,0,0,0,0,17.451h34.9a4.376,4.376,0,0,1,4.363,4.363v39.02H135.25a6.546,6.546,0,0,0-4.626,11.174l21.814,21.819a5.885,5.885,0,0,0,4.626,2.154,6.545,6.545,0,0,0,4.627-1.917l21.814-21.819A6.563,6.563,0,0,0,184.931,137.84Zm-84.583,4.69h-34.9a4.376,4.376,0,0,1-4.363-4.363V98.9H74.171A6.546,6.546,0,0,0,78.8,87.728L56.984,65.909a6.562,6.562,0,0,0-9.262.008L25.908,87.736A6.545,6.545,0,0,0,30.544,98.9H43.632v39.265a21.843,21.843,0,0,0,21.814,21.814h34.9a8.726,8.726,0,0,0,0-17.451Z" transform="translate(-23.404 -63.5)" fill="rgba(55,57,149,0.01)" stroke="rgba(255,255,255,0.75)" stroke-width="1"/>
</svg>
